<svg version="1" xmlns="http://www.w3.org/2000/svg" width="1280" height="1280" viewBox="0 0 960 960"><path d="M40.6 1.6C21.7 6.2 6 22.1 1.5 41.2.2 46.7 0 102.2 0 480c0 475.7-.5 438.2 6.1 451.2 4.3 8.5 13.4 17.8 21.8 22.2 13.5 7.1-5.4 6.6 252.4 6.6H513V588H387V443h125.9l.4-67.3c.4-71.1.5-73.3 5.6-96.2 7.9-36.1 28-70.8 53.3-92 26.1-22 53.8-33.9 93.8-40.2 19.7-3.1 89-2 132.5 2.1l12 1.1.3 64.7.2 64.8h-40.7c-53.4 0-63.5 1.1-79.1 8.5-13.2 6.3-21.5 17.1-25.8 34-1.5 6.2-1.8 13.5-2.1 63.7l-.4 56.8h71c39 0 71.2.3 71.4.7.3.5-1.2 14.1-3.3 30.3-9 69.9-14.1 109.7-14.6 111.7l-.4 2.3H663v372h124.8c138.2 0 131.1.3 144.3-6.6 8.4-4.4 17.5-13.7 21.8-22.2 6.6-13 6.1 24.5 6.1-451.2 0-382-.2-433.2-1.5-438.9-4.6-19.3-20.4-35-39.7-39.6-9.3-2.2-869.1-2.1-878.2.1z"/></svg>